HIERARCHY
ROOT Hips
{
	OFFSET 47.526299 -13.284913 84.175797
	CHANNELS 6 Xposition Yposition Zposition Xrotation Yrotation Zrotation
	JOINT spine
	{
		OFFSET 0.000000 -0.359108 6.244797
		CHANNELS 3 Xrotation Yrotation Zrotation
		JOINT spine1
		{
			OFFSET 0.000000 -0.000002 9.069412
			CHANNELS 3 Xrotation Yrotation Zrotation
			JOINT spine2
			{
				OFFSET 0.000000 -0.000001 8.690140
				CHANNELS 3 Xrotation Yrotation Zrotation
				JOINT Neck
				{
					OFFSET 0.000000 -1.063724 22.311203
					CHANNELS 3 Xrotation Yrotation Zrotation
					JOINT Head
					{
						OFFSET 0.000000 -0.000001 6.740814
						CHANNELS 3 Xrotation Yrotation Zrotation
						End Site
						{
							OFFSET 0.000000 5.380967 16.316498
						}
					}
				}
				JOINT RightShoulder
				{
					OFFSET -3.659161 0.509512 9.384682
					CHANNELS 3 Xrotation Yrotation Zrotation
					JOINT RightArm
					{
						OFFSET 0.000000 -0.000002 12.308907
						CHANNELS 3 Xrotation Yrotation Zrotation
						JOINT RightArmRoll
						{
							OFFSET 0.000000 -0.000001 6.213745
							CHANNELS 3 Xrotation Yrotation Zrotation
							JOINT RightForeArm
							{
								OFFSET 0.000000 -0.000003 18.098495
								CHANNELS 3 Xrotation Yrotation Zrotation
								JOINT RightForeArmRoll
								{
									OFFSET 0.000000 -0.000002 6.972794
									CHANNELS 3 Xrotation Yrotation Zrotation
									JOINT RightHand
									{
										OFFSET 0.000000 -0.000002 13.992905
										CHANNELS 3 Xrotation Yrotation Zrotation
										End Site
										{
											OFFSET 0.000000 0.000000 0.100006
										}
									}
								}
							}
						}
					}
				}
				JOINT LeftShoulder
				{
					OFFSET 3.659161 0.509512 9.384682
					CHANNELS 3 Xrotation Yrotation Zrotation
					JOINT LeftArm
					{
						OFFSET 0.000000 -0.000002 12.308907
						CHANNELS 3 Xrotation Yrotation Zrotation
						JOINT LeftArmRoll
						{
							OFFSET 0.000000 -0.000001 6.213745
							CHANNELS 3 Xrotation Yrotation Zrotation
							JOINT LeftForeArm
							{
								OFFSET 0.000000 -0.000003 18.098495
								CHANNELS 3 Xrotation Yrotation Zrotation
								JOINT LeftForeArmRoll
								{
									OFFSET 0.000000 -0.000002 6.972794
									CHANNELS 3 Xrotation Yrotation Zrotation
									JOINT LeftHand
									{
										OFFSET 0.000000 -0.000002 13.992905
										CHANNELS 3 Xrotation Yrotation Zrotation
										End Site
										{
											OFFSET 0.000000 0.000000 0.100006
										}
									}
								}
							}
						}
					}
				}
			}
		}
	}
	JOINT RightUpLeg
	{
		OFFSET -5.535160 0.851454 -1.014999
		CHANNELS 3 Xrotation Yrotation Zrotation
		JOINT RightUpLegRoll
		{
			OFFSET 0.000000 -0.000003 16.407501
			CHANNELS 3 Xrotation Yrotation Zrotation
			JOINT RightLeg
			{
				OFFSET 0.000000 0.000003 -20.318100
				CHANNELS 3 Xrotation Yrotation Zrotation
				JOINT RightLegRoll
				{
					OFFSET 0.000000 -0.000003 20.384598
					CHANNELS 3 Xrotation Yrotation Zrotation
					JOINT RightFoot
					{
						OFFSET 0.000000 -0.000003 16.966797
						CHANNELS 3 Xrotation Yrotation Zrotation
						JOINT RightToeBase
						{
							OFFSET 0.000000 -0.000002 14.183395
							CHANNELS 3 Xrotation Yrotation Zrotation
							End Site
							{
								OFFSET 0.006012 0.791744 6.868896
							}
						}
					}
				}
			}
		}
	}
	JOINT LeftUpLeg
	{
		OFFSET 5.535160 0.851454 -1.014999
		CHANNELS 3 Xrotation Yrotation Zrotation
		JOINT LeftUpLegRoll
		{
			OFFSET 0.000000 -0.000003 16.407600
			CHANNELS 3 Xrotation Yrotation Zrotation
			JOINT LeftLeg
			{
				OFFSET 0.000000 -0.000003 20.318100
				CHANNELS 3 Xrotation Yrotation Zrotation
				JOINT LeftLegRoll
				{
					OFFSET 0.000000 -0.000004 20.573097
					CHANNELS 3 Xrotation Yrotation Zrotation
					JOINT LeftFoot
					{
						OFFSET 0.000000 -0.000003 16.778305
						CHANNELS 3 Xrotation Yrotation Zrotation
						JOINT LeftToeBase
						{
							OFFSET 0.000000 -0.000002 14.183395
							CHANNELS 3 Xrotation Yrotation Zrotation
							End Site
							{
								OFFSET -0.026943 0.791745 6.868896
							}
						}
					}
				}
			}
		}
	}
}
MOTION
Frames: 4
Frame Time: 0.041667
46.738697 -13.467710 84.148315 0.115413 0.337014 -4.228219 -1.399562 0.257338 0.099024 1.197718 0.513148 0.213072 2.842805 0.515529 0.206912 4.560785 -8.060684 0.239057 -0.719015 3.659484 1.354845 -0.545280 -69.100730 -1.768606 127.897929 -48.302517 84.397055 -0.000013 0.000000 -0.000014 93.367668 1.124981 -8.528065 0.000002 0.000004 -3.000001 -5.000033 -7.999938 -0.000001 -16.364252 58.361255 19.313140 -41.734129 132.913419 88.035510 0.000002 0.000000 -0.000000 85.888563 1.725073 5.646822 0.000008 -0.000011 3.000011 -4.999883 8.000051 0.000021 -7.604612 -177.130424 -0.235505 -179.999991 0.000005 -0.838004 168.151444 -0.643007 -1.085900 0.000002 -0.000001 0.138669 70.128769 5.653890 5.364964 25.456960 -7.355615 -0.000001 -1.251805 175.443094 -2.871888 -0.000005 -0.000004 -1.014830 -11.738098 0.967391 0.956010 0.000001 0.000002 -0.329162 74.726750 -6.524444 -2.797222 25.457966 7.355616 -0.001549 
46.740700 -13.460110 84.146805 0.106831 0.338444 -4.233081 -1.399444 0.257493 0.099108 1.198198 0.513396 0.212571 2.843286 0.515780 0.206406 4.601904 -8.056388 0.242626 -0.723939 3.660819 1.354706 -0.557215 -69.096195 -1.781441 127.845186 -48.325474 84.452980 -0.000014 -0.000000 -0.000014 93.382756 1.126859 -8.531275 0.000001 0.000006 -2.999999 -5.000031 -7.999935 -0.000000 -16.358498 58.351399 19.306160 -41.780615 132.885114 88.010321 -0.000001 -0.000001 0.000001 85.893645 1.713078 5.651618 0.000009 -0.000011 3.000010 -4.999884 8.000054 0.000016 -7.608078 -177.141352 -0.253129 -179.999991 0.000005 -0.838004 168.139190 -0.619489 -1.087102 0.000002 -0.000001 0.138668 70.123537 5.648045 5.379502 25.456959 -7.355618 -0.000001 -1.255905 175.440089 -2.873689 -0.000005 -0.000004 -1.014020 -11.752800 0.967467 0.957183 0.000000 0.000002 -0.328452 74.726661 -6.519289 -2.812434 25.457964 7.355616 -0.001549 
46.745094 -13.461711 84.151306 0.098769 0.339955 -4.238056 -1.399426 0.257631 0.099197 1.198488 0.513596 0.212066 2.843576 0.515983 0.205897 4.643230 -8.052357 0.246237 -0.729228 3.662246 1.354651 -0.568518 -69.092063 -1.793596 127.794137 -48.348338 84.509452 -0.000014 -0.000001 -0.000009 93.397994 1.128900 -8.535474 -0.000000 0.000008 -3.000001 -5.000034 -7.999932 0.000000 -16.352482 58.341488 19.298865 -41.827286 132.855840 87.986934 -0.000001 0.000001 0.000003 85.897907 1.701433 5.656236 0.000007 -0.000012 3.000011 -4.999884 8.000053 0.000020 -7.612243 -177.153278 -0.271725 -179.999991 0.000005 -0.838005 168.126636 -0.595973 -1.088296 0.000002 -0.000001 0.138668 70.118005 5.641945 5.394614 25.456957 -7.355616 -0.000001 -1.260990 175.436100 -2.875435 -0.000005 -0.000004 -1.013180 -11.768203 0.967547 0.958398 0.000000 0.000002 -0.327741 74.726818 -6.513943 -2.828105 25.457963 7.355616 -0.001550 
46.745296 -13.444208 84.149605 0.091071 0.341523 -4.243102 -1.399473 0.257758 0.099295 1.198638 0.513763 0.211560 2.843726 0.516154 0.205386 4.684718 -8.048508 0.249881 -0.734772 3.663740 1.354635 -0.579368 -69.088122 -1.805269 127.744591 -48.370949 84.566765 -0.000013 -0.000001 -0.000012 93.413287 1.131067 -8.537698 0.000001 0.000006 -3.000000 -5.000036 -7.999930 0.000001 -16.346256 58.331496 19.291323 -41.872803 132.827112 87.962981 0.000001 -0.000002 -0.000002 85.901629 1.690010 5.660679 0.000008 -0.000011 3.000011 -4.999884 8.000053 0.000020 -7.616887 -177.165190 -0.291094 -179.999991 0.000005 -0.838005 168.114001 -0.571483 -1.089276 0.000002 -0.000001 0.138669 70.112343 5.635696 5.410104 25.456957 -7.355615 -0.000001 -1.266752 175.432111 -2.877178 -0.000005 -0.000004 -1.012330 -11.784104 0.967633 0.959642 -0.000000 0.000002 -0.327029 74.726941 -6.508515 -2.844169 25.457964 7.355616 -0.001549 
